<?xml version="1.0" encoding="UTF-8"?>
<svg id="Layer_1" xmlns="http://www.w3.org/2000/svg" version="1.1" viewBox="0 0 576 576">
  <!-- Generator: Adobe Illustrator 29.7.1, SVG Export Plug-In . SVG Version: 2.1.1 Build 8)  -->
  <defs>
    <style>
      .st0 {
        fill: none;
      }

      .st1 {
        fill: #dd7f4b;
      }

      .st2 {
        fill: #fff;
      }

      .st3 {
        fill: #824f81;
      }

      .st4 {
        fill: #824f82;
      }
    </style>
  </defs>
  <circle class="st3" cx="288" cy="288" r="240"/>
  <g>
    <path class="st0" d="M251.7,334.3c-3.2-1.5-6.5-3-9.7-4.5,3.2,1.5,6.5,3,9.7,4.5Z"/>
    <path class="st2" d="M279.6,435.6c-1.8-.8-3.7-1.6-5.5-2.3-2.7-1.2-5.3-2.5-7.9-4-8.2-5-27.3-16.4-27.3-16.4,26.2,6.8,53,14,80,16.2,1.8.1,3.6.3,5.4.3,3.5,0,7-.4,10.1-1.9,7.2-3.3,11.3-11.2,12.7-19,1-5.7.8-11.7-1.2-17.2-3.3-8.7-11-15.1-18.5-20.3-6.9-4.7-14.3-8.8-21.9-12.2-17.9-8.2-36-16.2-53.9-24.4-3.2-1.5-6.5-3-9.7-4.5,11.9,2.4,23.8,4.8,35.7,7.1,5.2,1,10.4,2.1,15.5,3.3,1,.2,2,.4,3,.6l18.7-106.4,41.5,27.5c4.4-14.3,6.6-26.4,5.8-49-.5-16.5-10.2-32.2-21.7-44.2-37.3-38.7-96.9-41.7-137-7-17.2,14.9-29.3,33.8-39.7,54.4-9.3,18.5-17.5,38.4-24,57.2-13.8,39.6-23.7,80.8-39,119.9,34.2,60.8,97.1,103.3,170.4,109l10.1-65.9c-.5-.2-1-.4-1.5-.6ZM280.4,248.5c14.7,3.4,7.5,30.8-9.7,21.2-10.3-5.8-4.3-24.4,9.7-21.2Z"/>
    <path class="st1" d="M325.7,259.8s-12.1,73.2-12.1,73.3c0,0,23,10.2,31.8,15.8,6.2,4,12.3,8.3,16.9,14.1,2.6,3.2,4.8,6.7,6.6,10.3,6.4,12.9,7.9,28,5.4,42.2-1.6,8.6-4.7,17-10.2,23.8-8.3,10.2-21.5,14.3-34.3,15.7-13.5,1.4-35.1-3.5-35.1-3,0,0-4.2,26.5-8.1,50.8.5,0,1,0,1.5,0,59.5,0,113.3-24.2,152.2-63.2l16.1-98-130.6-81.8Z"/>
    <polygon class="st1" points="402.2 233.1 372.1 271.4 457.6 324.6 402.2 233.1"/>
    <path class="st4" d="M270.7,269.7c17.2,9.7,24.5-17.7,9.7-21.2-14.1-3.3-20.1,15.4-9.7,21.2Z"/>
    <path class="st1" d="M242,329.8c3.2,1.5,6.5,3,9.7,4.5,17.9,8.2,36,16.2,53.9,24.4,7.6,3.5,15,7.5,21.9,12.2,7.5,5.1,15.2,11.6,18.5,20.3,2,5.4,2.2,11.4,1.2,17.2-1.4,7.8-5.4,15.8-12.7,19-3.2,1.4-6.6,1.9-10.1,1.9s-3.6-.1-5.4-.3c-27.1-2.2-53.8-9.3-80-16.2,0,0,19,11.5,27.3,16.4,2.5,1.5,5.2,2.9,7.9,4,1.8.8,3.7,1.6,5.5,2.3.5.2,1,.4,1.5.6,11.6,4.8,24.6,8.1,37.3,8.6,2,0,4,0,6,0,10.2-.7,20.4-4.2,27.3-11.6,5.1-5.4,8-12.6,9.7-19.8,1.8-7.6,2.2-15.6.4-23.2-3-12.8-12-23.5-22.7-31.1-14.1-10-29.7-15.1-45.9-18.9-5.1-1.2-10.3-2.3-15.5-3.3-11.9-2.4-23.8-4.7-35.7-7.1Z"/>
    <path class="st1" d="M163.7,216.1c10.4-20.6,22.5-39.4,39.7-54.4,40.2-34.8,99.7-31.7,137,7,11.5,12,21.2,27.7,21.7,44.2.8,22.7-1.4,34.7-5.8,49,3-9.8,16.6-31.1,13.5-56.1-5.7-46.7-53.7-82.9-97.3-83.9-1.1,0-2.2,0-3.2,0-45.4,0-81.3,22.8-109.8,69.8-23.4,38.4-38.1,86.4-52.3,132.8-5.3,17.4-10.6,34.4-16,50,2.8,6.5,6,12.7,9.4,18.8,15.3-39.1,25.2-80.2,39-119.9,6.6-18.8,14.7-38.7,24-57.2Z"/>
  </g>
</svg>