<?xml version="1.0" encoding="UTF-8"?><svg id="Layer_1" xmlns="http://www.w3.org/2000/svg" viewBox="0 0 576 576"><defs><style>.cls-1{fill:#231f20;}.cls-2{fill:#fff;}</style></defs><path class="cls-2" d="M64.97,400.19c-1.09-23.28,24.81-28.71,38.3-40.28C170.96,301.87,167.44,30.4,317.24,34.05c38.79.94,88.95,34.97,93.84,75.06,4.11,33.66-5.82,55.55-5.82,55.55l-42.95-28.39-19.79,113.27c-19.11-3.82-57-13.82-57-13.82,18.59,8.71,37.37,17.03,56.07,25.49,12.88,5.83,25.84,11.79,37.18,20.25,6.58,4.91,12.75,10.91,15.65,18.6,2.14,5.69,2.35,11.99,1.3,17.98-1.43,8.19-5.71,16.5-13.27,19.94-5.01,2.28-10.76,2.12-16.25,1.68-28.34-2.27-56.38-9.79-83.81-16.94,0,0,45.19,23.13,45.19,23.13l-21.01,135.4,59.92-20.74s-27.63,72.27-44.26,78.64c-41.36,15.83-36.63-39.22-57.98-43.34s-26.6,26.88-52.77,14.5c-15.49-7.33-6.96-41.8-22.78-46.88-13.92-4.47-28.21,4.66-42.71,5.9-36.78,3.16-17.67-41.77-29.8-52.56-13.11-11.65-49.72,15.46-51.22-16.57ZM316.01,173.23c18.01,10.11,25.64-18.57,10.2-22.15s-21,16.09-10.2,22.15Z"/><path d="M316.01,173.23c-10.8-6.06-4.51-25.57,10.2-22.15,15.44,3.58,7.8,32.26-10.2,22.15"/><path class="cls-1" d="M527.09,231.68l-87.73-118.46-17.74,53.45c3.11-9.01,8.89-30.61,5.36-59.5-5.96-48.84-63.68-88.02-109.36-89.14-1.11-.03-2.23-.04-3.34-.04h0s0,0-.01,0c0,0-.02,0-.03,0h0c-47.45.01-85.08,23.9-114.95,73.04-24.45,40.22-39.86,90.47-54.77,139.06-15.69,51.17-30.52,99.5-51.7,117.67-2.71,2.32-6.84,4.7-11.21,7.22-13.5,7.79-33.91,19.56-32.67,45.97.93,19.79,12.7,31.6,31.51,31.6,5.29,0,10.41-.84,15.37-1.65,3.12-.51,6.33-1.04,8.83-1.18.3,2.57.44,6.14.54,8.79.33,8.68.7,18.53,4.73,27.42,5.73,12.63,17.28,19.59,32.52,19.59,1.58,0,3.23-.07,4.91-.22,6.94-.6,13.4-2.46,19.11-4.11,5.26-1.52,10.23-2.96,14.08-2.96.55,0,1.06.03,1.54.09.95,2.55,1.83,7.62,2.4,10.85,2.1,12.01,4.98,28.47,20.14,35.63,6.26,2.96,12.44,4.46,18.35,4.46,13.38,0,22.2-7.24,28.65-12.53,4.03-3.3,6.61-5.31,8.47-5.31.12,0,.25,0,.38.02,1.82,1.88,4.62,7.79,6.52,11.8,6.16,13.01,16.46,34.79,41.72,34.79,6.06,0,12.36-1.28,19.23-3.91,8.1-3.1,18.84-11.44,37.11-49.78,9.15-19.22,16.1-37.34,16.39-38.1l4.81-12.57,102.24-36.24,8.92-3.16,1.54-9.34,24.78-150.4,1.69-10.23h0s1.66-12.6,1.66-12.6ZM322.23,539.14c-5.18,1.98-9.63,2.85-13.5,2.85-27.08,0-25.8-42.59-44.47-46.19-1.46-.28-2.84-.41-4.15-.41-15.43,0-21.8,17.84-37.12,17.84-3.34,0-7.12-.85-11.5-2.92-15.49-7.33-6.96-41.8-22.78-46.88-2.7-.87-5.42-1.22-8.15-1.22-11.33,0-22.87,6.12-34.56,7.12-1.24.11-2.42.16-3.54.16-31.98,0-14.54-42.29-26.27-52.72-2.64-2.35-6.24-3.12-10.31-3.12-7.85,0-17.46,2.87-25.4,2.87-8.37,0-14.88-3.2-15.5-16.32-1.09-23.28,24.81-28.71,38.3-40.28,67.24-57.65,64.21-325.91,211-325.9.98,0,1.98.01,2.98.04,38.79.94,88.95,34.97,93.84,75.06,4.08,33.44-5.68,55.24-5.81,55.53l-23.3-15.44-20.63-13.67-4.03,24.42-14.79,89.6c-19.11-3.82-37.88-10.01-57-13.82,18.59,8.71,37.37,17.03,56.07,25.49,12.88,5.83,25.84,11.79,37.18,20.25,6.58,4.91,12.75,10.91,15.65,18.6.92,2.45,1.47,5.01,1.73,7.62.19,4.71-.55,10.02-2.04,16.45-1.29,3.57-3.22,6.87-5.75,9.53-4.97,4.34-11.69,5.91-15.72,6.24-.27,0-.54.03-.82.03-1.88,0-3.76-.12-5.62-.26-28.35-2.27-56.39-9.79-83.81-16.94,0,0,44.98,24.47,44.98,24.47l-9.6,61.9c-4.15,24.15-8.02,46.57-8.02,46.57l-4.23,26.62,25.41-9.01,35.5-12.58c-1.46,3.78-28.01,72.26-44.19,78.45ZM483.16,402.3l-103.13,36.56-18.78,6.5-34.77,12.03,16.21-104.48c7.35,1.18,14.76,2.11,22.23,2.71,1.04.08,2.28.17,3.63.23.66.07,1.17.11,1.38.12.37.01.74.02,1.11.02,1.03,0,2.11-.06,3.22-.16,5.55-.25,10.44-1.29,14.82-3.28,11.66-5.29,19.84-16.87,22.44-31.78,1.03-5.93,1.11-11.78.26-17.3-.42-4.31-1.47-8.57-3.44-12.78-2.7-5.76-6.13-10.58-10.11-14.72-6.8-7.08-15.19-12.17-24.19-16.63-5.24-2.98-10.52-5.64-15.56-8.03l.99-6,14.41-82.21,22.56,14.91,15.67,10.36h0s95.84,63.52,95.84,63.52l-24.78,150.4ZM492.64,222.54l-63.02-44.45,13.03-36.13,68.53,92.87-18.53-12.28Z"/><path class="cls-1" d="M427.54,137.71c-.33,2.84.14,4.95.9,5.11.74.16,1.97-1.48,2.85-3.93l-9.67,27.77,5.92-28.95Z"/></svg>