<?xml version="1.0" encoding="UTF-8"?><svg id="Layer_1" xmlns="http://www.w3.org/2000/svg" viewBox="0 0 576 188.6"><defs><style>.cls-1{fill:#231f20;}.cls-2{fill:#dd7f4b;}.cls-3{fill:#fff;}.cls-4{fill:#824f82;}</style></defs><path class="cls-4" d="M158.92,106.54v-8.31l.05-1.06v-2.07l.05-2.11v-2.07l.09-3.12v-6.33l.18-7.3c.03-.7.05-1.42.05-2.16l.09-5.28v-2.07c0-6.24.11-9.85.32-10.83.34-1.59,1.24-2.39,2.71-2.39h.87c2.26,0,3.72.79,4.36,2.36.64,1.58.96,4.79.96,9.64s.11,7.82.34,8.9c.23,1.09.82,1.63,1.77,1.63.12,0,.78-.17,1.97-.5l2.39-.6c1.84-.46,3.77-.69,5.81-.69s4.06.43,6.08,1.29c3.98,1.71,6.93,5.2,8.86,10.46,1.25,3.43,1.88,6.78,1.88,10.05v3.21c0,2.36-.47,4.94-1.42,7.76-1.81,5.29-5.22,9.03-10.23,11.2-2.17.92-4.45,1.38-6.84,1.38h-1.97c-1.29,0-3.04-.31-5.28-.92-2.23-.61-3.67-.92-4.31-.92l-3.44.23c-1.96,0-3.34-.66-4.13-1.97s-1.19-3.79-1.19-7.44ZM188.2,91.54l-.09-2.48c0-3.3-.88-6.06-2.64-8.26-1.76-2.2-3.73-3.3-5.9-3.3h-.92l-.41.05c-3.61,0-6.35,1.41-8.22,4.22-1.44,2.17-2.16,5.19-2.16,9.04-.09.92-.14,1.55-.14,1.88l-.09,2.39v2.39c0,5.11.63,8.61,1.9,10.51,1.27,1.9,3.48,2.85,6.63,2.85h.41c3.52,0,6.34-1.45,8.47-4.34,2.13-2.89,3.19-7.2,3.19-12.92v-1.56l-.05-.46Z"/><path class="cls-4" d="M247.04,93.92v1.47c0,6.98-1.9,12.62-5.69,16.94-1.81,2.08-4.12,3.66-6.93,4.73-2.81,1.07-5.65,1.61-8.49,1.61h-1.51c-5.42,0-9.84-2.19-13.26-6.56-2.75-3.52-4.13-8.46-4.13-14.82v-2.29c.06-.98.09-2.26.09-3.86,0-1.5.47-3.61,1.42-6.33,1.87-5.42,5.08-9.13,9.64-11.15,2.75-1.22,5.45-1.84,8.08-1.84h1.47c6.09,0,11,2.17,14.73,6.52,3.06,3.55,4.59,8.75,4.59,15.6ZM215.65,94.7v2.52c0,4.56.94,8.12,2.82,10.67,1.88,2.55,4.4,3.83,7.55,3.83l.46-.05c3.34,0,5.97-1.45,7.89-4.34,1.93-2.89,2.89-7.01,2.89-12.37v-2.02c0-4.16-.83-7.62-2.48-10.37-1.65-2.75-3.96-4.13-6.93-4.13h-1.33c-3.18,0-5.79,1.48-7.83,4.45-2.03,2.97-3.05,6.9-3.05,11.8Z"/><path class="cls-4" d="M296.24,93.92v1.47c0,6.98-1.9,12.62-5.69,16.94-1.81,2.08-4.12,3.66-6.93,4.73-2.81,1.07-5.65,1.61-8.49,1.61h-1.51c-5.42,0-9.84-2.19-13.26-6.56-2.75-3.52-4.13-8.46-4.13-14.82v-2.29c.06-.98.09-2.26.09-3.86,0-1.5.47-3.61,1.42-6.33,1.87-5.42,5.08-9.13,9.64-11.15,2.75-1.22,5.45-1.84,8.08-1.84h1.47c6.09,0,11,2.17,14.73,6.52,3.06,3.55,4.59,8.75,4.59,15.6ZM264.85,94.7v2.52c0,4.56.94,8.12,2.82,10.67,1.88,2.55,4.4,3.83,7.55,3.83l.46-.05c3.34,0,5.97-1.45,7.89-4.34,1.93-2.89,2.89-7.01,2.89-12.37v-2.02c0-4.16-.83-7.62-2.48-10.37-1.65-2.75-3.96-4.13-6.93-4.13h-1.33c-3.18,0-5.79,1.48-7.83,4.45-2.03,2.97-3.05,6.9-3.05,11.8Z"/><path class="cls-4" d="M311.16,51.06h1.1c2.17,0,3.56,1.3,4.18,3.9.43,1.77.64,7.49.64,17.14s.51,14.48,1.54,14.48,3.82-2.23,8.4-6.68c4.57-4.45,8.09-6.68,10.53-6.68s3.67.52,3.67,1.56c0,.28-1.76,2.97-5.28,8.08-3.52,5.11-5.28,8.32-5.28,9.64s2.22,5.12,6.65,11.41c4.44,6.29,6.65,9.93,6.65,10.92s-.67,1.49-2.02,1.49c-2.29,0-4.17-.63-5.62-1.9-1.45-1.27-3.85-4.46-7.18-9.57-3.34-5.11-5.8-7.66-7.39-7.66s-2.81,1.42-3.67,4.27c-.31.98-.62,2.94-.94,5.9-.32,2.95-.86,5.12-1.61,6.49-.75,1.38-2.06,2.07-3.92,2.07s-2.98-.83-3.35-2.48c-.64-2.91-.96-7.18-.96-12.8v-5.69l.05-1.42v-4.31l.05-2.94.14-5.83.18-12.94c0-8.66.09-13.33.28-14,.43-1.62,1.48-2.43,3.17-2.43Z"/><path class="cls-4" d="M372.11,118.43h-1.06c-3.09-.03-5.91-.6-8.44-1.7-4.86-2.14-8.15-5.81-9.87-11.01-.95-2.91-1.42-5.84-1.42-8.81v-2.07c.03-3.09.63-6.17,1.79-9.23,2.39-6.18,6.32-10.28,11.8-12.3,2.57-.92,5.2-1.38,7.89-1.38h1.01c4.34,0,7.96,1.34,10.83,4.02,2.88,2.68,4.31,6.33,4.31,10.95v.92c0,3.24-1.04,5.52-3.12,6.84-1.59,1.01-5.24,1.93-10.95,2.75-5.71.83-9.13,1.42-10.26,1.79-1.84.58-2.75,1.42-2.75,2.52,0,2.78,1.39,5.11,4.18,6.98,1.62,1.07,4.15,1.61,7.57,1.61,1.41,0,3.6-.42,6.59-1.26,2.98-.84,4.86-1.26,5.62-1.26,1.81,0,2.71.92,2.71,2.75s-1.75,3.61-5.26,5.32c-3.5,1.71-7.23,2.57-11.18,2.57ZM374.54,90.94c1.96,0,3.64-.44,5.05-1.33.76-.49,1.15-1.47,1.15-2.94v-.28c0-2.2-.67-4.06-2.02-5.58s-3.26-2.27-5.74-2.27h-.55c-2.78,0-5.35,1.04-7.69,3.12s-3.51,4.71-3.51,7.89v.78c0,.95.72,1.42,2.16,1.42l.46.09h1.65l.28-.05,2.52-.18.32-.05,1.7-.14c.21-.03.46-.06.73-.09s.83-.11,1.68-.23,1.45-.18,1.81-.18Z"/><path class="cls-4" d="M423.08,73.18c2.07,0,3.79.33,5.19.99s2.81,1.43,4.27,2.32c1.45.89,2.44,1.33,2.96,1.33s2.19-.66,5-1.97c2.81-1.32,5.52-1.97,8.12-1.97s4.93.72,6.98,2.16c2.05,1.44,3.55,3.47,4.5,6.1,1.71,4.71,2.57,14.33,2.57,28.87,0,3-.93,4.5-2.78,4.5s-3.14-1.29-3.88-3.88c-.73-2.59-1.46-7.09-2.18-13.52-.72-6.43-1.45-10.4-2.18-11.93-1.5-3.03-3.76-4.54-6.77-4.54s-5.09,1.64-6.22,4.91c-.73,2.2-1.41,7.15-2.02,14.85-.61,7.7-.96,11.7-1.06,12-.58,1.99-1.97,2.98-4.15,2.98s-3.54-.54-4.06-1.63c-.52-1.09-.78-5.97-.78-14.64s-.49-14.06-1.47-16.16-2.89-3.14-5.74-3.14c-1.38,0-2.91.58-4.61,1.74s-2.95,2.72-3.76,4.68c-.81,1.96-1.43,6.05-1.86,12.28-.43,6.23-.93,10.34-1.51,12.35-.58,2-1.73,3.01-3.44,3.01-1.19,0-2.06-.55-2.59-1.65-.54-1.1-.8-3.09-.8-5.97l.05-1.7v-3.49c0-10.74.44-18.25,1.33-22.53.52-2.48,1.87-3.72,4.04-3.72l5.05.73,5.14-1.97c2.39-.92,4.61-1.38,6.68-1.38Z"/><path class="cls-4" d="M513.1,93.92v1.47c0,6.98-1.9,12.62-5.69,16.94-1.81,2.08-4.12,3.66-6.93,4.73-2.81,1.07-5.65,1.61-8.49,1.61h-1.51c-5.42,0-9.84-2.19-13.26-6.56-2.75-3.52-4.13-8.46-4.13-14.82v-2.29c.06-.98.09-2.26.09-3.86,0-1.5.47-3.61,1.42-6.33,1.87-5.42,5.08-9.13,9.64-11.15,2.75-1.22,5.45-1.84,8.08-1.84h1.47c6.09,0,11,2.17,14.73,6.52,3.06,3.55,4.59,8.75,4.59,15.6ZM481.71,94.7v2.52c0,4.56.94,8.12,2.82,10.67,1.88,2.55,4.4,3.83,7.55,3.83l.46-.05c3.34,0,5.97-1.45,7.89-4.34,1.93-2.89,2.89-7.01,2.89-12.37v-2.02c0-4.16-.83-7.62-2.48-10.37s-3.96-4.13-6.93-4.13h-1.33c-3.18,0-5.79,1.48-7.83,4.45s-3.05,6.9-3.05,11.8Z"/><path class="cls-4" d="M525.68,112.01c.15-2.6.23-4.51.23-5.74l.14-4.96v-1.7l.05-1.65c0-7.4-.15-12.34-.44-14.8s-.44-4.53-.44-6.2.39-2.81,1.17-3.44c.78-.63,2.03-.94,3.74-.94h.78c1.93,0,3.12,1.44,3.58,4.31.46,2.88.69,9,.69,18.36v1.65l-.05.83v8.26l-.18,7.53c-.03.58-.05,1.15-.05,1.7,0,10.59-2.81,17.24-8.44,19.96-2.08,1.01-4.25,1.51-6.52,1.51h-.73c-1.9,0-3.18-.35-3.86-1.06s-1.01-1.35-1.01-1.93v-.69c0-1.65,1.28-2.99,3.83-4.02,2.55-1.03,4.25-2.3,5.07-3.83,1.62-3,2.43-7.39,2.43-13.17ZM525.22,59.27l.09-.92c0-1.07.39-2,1.17-2.78s1.72-1.17,2.82-1.17c.24-.06.43-.09.55-.09l.69-.09h.83c.37.09.69.14.96.14,1.99,0,2.98,1.53,2.98,4.59v.78l-.09.96-.18,1.1c0,.86-.43,1.64-1.29,2.36-.86.72-2.31,1.08-4.36,1.08h-.37c-2.39,0-3.58-.86-3.58-2.57-.09-.37-.14-.61-.14-.73l-.14-1.1v-1.38l.05-.18Z"/><path class="cls-4" d="M558.58,96.77l1.93,14.09v1.01l-.05.46c0,1.99-.41,3.4-1.24,4.22-.83.83-2.43,1.24-4.82,1.24h-.55c-2.14,0-3.5-1.16-4.08-3.49-.31-1.19-.46-5.8-.46-13.81v-19.64l-.23-3.08v-1.01c0-1.5.28-2.54.83-3.12s1.42-.87,2.62-.87h1.56c2.17,0,3.5.78,3.99,2.34.21.67.32,3.18.32,7.53v9.91l.14,2.75c.03.37.05.86.05,1.47ZM560.1,59.13c0,3.18-1.81,4.77-5.42,4.77h-.37l-.18-.05-1.38-.14c-.12-.03-.23-.05-.32-.05-1.99,0-2.98-1.36-2.98-4.08v-.87c0-1.68.38-2.91,1.15-3.67.76-.76,1.71-1.15,2.85-1.15l1.06-.14h1.06l1.56.23c1.9,0,2.85,1.07,2.85,3.21l.14,1.06v.87Z"/><polygon class="cls-2" points="118.33 62.73 145.84 80.27 125.62 50.82 118.33 62.73"/><path class="cls-3" d="M19.94,123.89c-.3-6.45,6.88-7.96,10.61-11.16,18.76-16.08,17.78-91.31,59.29-90.3,10.75.26,24.65,9.69,26,20.8,1.14,9.33-1.61,15.39-1.61,15.39l-11.9-7.87-5.48,31.39c-5.3-1.06-15.79-3.83-15.79-3.83,5.15,2.41,10.35,4.72,15.54,7.06,3.57,1.61,7.16,3.27,10.3,5.61,1.82,1.36,3.53,3.02,4.34,5.15.59,1.58.65,3.32.36,4.98-.4,2.27-1.58,4.57-3.68,5.53-1.39.63-2.98.59-4.5.47-7.85-.63-15.62-2.71-23.23-4.7l12.52,6.41-5.82,37.52,16.61-5.75s-7.66,20.03-12.27,21.79c-11.46,4.39-10.15-10.87-16.07-12.01-6.18-1.19-7.37,7.45-14.62,4.02-4.29-2.03-1.93-11.58-6.31-12.99-3.86-1.24-7.82,1.29-11.84,1.63-10.19.87-4.9-11.57-8.26-14.56-3.63-3.23-13.78,4.28-14.19-4.59ZM89.51,61c4.99,2.8,7.1-5.15,2.83-6.14-4.08-.95-5.82,4.46-2.83,6.14Z"/><path class="cls-2" d="M137.8,126.13l7.31-44.39-41.41-27.45-4.94,29.91,1.96.87c3.81,1.69,7.41,3.28,9.97,5.94,1,1.04,1.78,2.18,2.39,3.48,1.19,2.55.92,5.27.09,8.83-1.04,4.48-5.6,6.1-8.42,6.1-.08,0-.16,0-.23,0-.43-.03-4.18-.46-7.47-.86l-2.12-.26-5.56,34.99,48.43-17.17Z"/><path d="M89.51,61c-2.99-1.68-1.25-7.08,2.83-6.14,4.28.99,2.16,8.94-2.83,6.14"/><path class="cls-1" d="M148,77.2l-24.31-32.83-4.92,14.81c.86-2.5,2.46-8.48,1.49-16.49-1.65-13.54-17.65-24.39-30.3-24.7-.31,0-.62-.01-.92-.01h0s0,0,0,0c0,0,0,0,0,0h0c-13.15,0-23.58,6.62-31.85,20.24-6.78,11.15-11.05,25.07-15.18,38.53-4.35,14.18-8.46,27.57-14.33,32.61-.75.64-1.89,1.3-3.11,2-3.74,2.16-9.4,5.42-9.05,12.74.26,5.48,3.52,8.76,8.73,8.76,1.46,0,2.89-.23,4.26-.46.86-.14,1.75-.29,2.45-.33.08.71.12,1.7.15,2.44.09,2.41.19,5.13,1.31,7.6,1.59,3.5,4.79,5.43,9.01,5.43.44,0,.9-.02,1.36-.06,1.92-.17,3.71-.68,5.29-1.14,1.46-.42,2.84-.82,3.9-.82.15,0,.29,0,.43.02.26.71.51,2.11.66,3.01.58,3.33,1.38,7.89,5.58,9.87,1.74.82,3.45,1.24,5.09,1.24,3.71,0,6.15-2.01,7.94-3.47,1.12-.92,1.83-1.47,2.35-1.47.03,0,.07,0,.11,0,.51.52,1.28,2.16,1.81,3.27,1.71,3.61,4.56,9.64,11.56,9.64,1.68,0,3.42-.35,5.33-1.08,2.24-.86,5.22-3.17,10.28-13.79,2.54-5.33,4.46-10.35,4.54-10.56l1.33-3.48,28.33-10.04,2.47-.88.43-2.59,6.87-41.68.47-2.84h0s.46-3.49.46-3.49ZM91.23,162.4c-1.43.55-2.67.79-3.74.79-7.5,0-7.15-11.8-12.32-12.8-.4-.08-.79-.11-1.15-.11-4.28,0-6.04,4.94-10.29,4.94-.93,0-1.97-.24-3.19-.81-4.29-2.03-1.93-11.58-6.31-12.99-.75-.24-1.5-.34-2.26-.34-3.14,0-6.34,1.7-9.58,1.97-.34.03-.67.04-.98.04-8.86,0-4.03-11.72-7.28-14.61-.73-.65-1.73-.87-2.86-.87-2.17,0-4.84.8-7.04.8-2.32,0-4.12-.89-4.29-4.52-.3-6.45,6.88-7.96,10.61-11.16,18.63-15.98,17.79-90.31,58.47-90.31.27,0,.55,0,.82.01,10.75.26,24.65,9.69,26,20.8,1.13,9.27-1.57,15.31-1.61,15.39l-6.46-4.28-5.72-3.79-1.12,6.77-4.1,24.83c-5.3-1.06-10.5-2.77-15.79-3.83,5.15,2.41,10.35,4.72,15.54,7.06,3.57,1.61,7.16,3.27,10.3,5.61,1.82,1.36,3.53,3.02,4.34,5.15.26.68.41,1.39.48,2.11.05,1.3-.15,2.78-.56,4.56-.36.99-.89,1.9-1.59,2.64-1.38,1.2-3.24,1.64-4.36,1.73-.08,0-.15,0-.23,0-.52,0-1.04-.03-1.56-.07-7.85-.63-15.62-2.71-23.23-4.7,0,0,12.46,6.78,12.46,6.78l-2.66,17.15c-1.15,6.69-2.22,12.9-2.22,12.9l-1.17,7.38,7.04-2.5,9.84-3.49c-.4,1.05-7.76,20.02-12.25,21.74ZM135.82,124.48l-28.58,10.13-5.2,1.8-9.63,3.33,4.49-28.95c2.04.33,4.09.59,6.16.75.29.02.63.05,1,.06.18.02.33.03.38.03.1,0,.2,0,.31,0,.29,0,.59-.02.89-.04,1.54-.07,2.89-.36,4.11-.91,3.23-1.47,5.5-4.68,6.22-8.81.29-1.64.31-3.26.07-4.79-.12-1.19-.41-2.37-.95-3.54-.75-1.6-1.7-2.93-2.8-4.08-1.88-1.96-4.21-3.37-6.7-4.61-1.45-.83-2.91-1.56-4.31-2.22l.27-1.66,3.99-22.78,6.25,4.13,4.34,2.87h0s26.56,17.6,26.56,17.6l-6.87,41.68ZM138.45,74.66l-17.46-12.32,3.61-10.01,18.99,25.73-5.14-3.4Z"/><path class="cls-1" d="M120.41,51.16c-.09.79.04,1.37.25,1.42.2.04.55-.41.79-1.09l-2.68,7.7,1.64-8.02Z"/></svg>