<?xml version="1.0" encoding="UTF-8"?>
<svg id="Layer_1" xmlns="http://www.w3.org/2000/svg" version="1.1" viewBox="0 0 576 576">
  <!-- Generator: Adobe Illustrator 29.7.1, SVG Export Plug-In . SVG Version: 2.1.1 Build 8)  -->
  <defs>
    <style>
      .st0 {
        fill: none;
      }

      .st1 {
        fill: #824f82;
      }

      .st2 {
        fill: #dd7f4b;
      }

      .st3 {
        fill: #fff;
      }
    </style>
  </defs>
  <circle class="st2" cx="288" cy="288" r="239.8"/>
  <g>
    <path class="st0" d="M242,329.7c4.8,2.3,9.6,4.5,14.4,6.6-4.7-2.2-9.5-4.4-14.2-6.6,0,0-.1,0-.2,0Z"/>
    <path class="st0" d="M239,412.7l1.5.8c-.5-.3-.9-.6-1.2-.7,0,0-.2,0-.3,0Z"/>
    <path class="st0" d="M270.7,269.7c-3.5-2-5.1-5.5-5.2-9.1,0,3.6,1.6,7.1,5.2,9.1Z"/>
    <path class="st0" d="M283.5,269.8c6.8-5.1,7.1-18.8-3.1-21.2,10.1,2.3,9.8,16,3.1,21.2Z"/>
    <path class="st0" d="M356.3,261.9s0,0,0-.1c0,0,0,.1,0,.1Z"/>
    <path class="st3" d="M279.6,435.3c-1.8-.8-3.6-1.5-5.5-2.3-2.7-1.2-5.3-2.5-7.9-4-6.8-4.2-21.1-12.7-25.7-15.5l-1.5-.8c0,0,.2,0,.3,0-.2-.1-.3-.2-.3-.2,26.2,6.8,52.9,14,79.9,16.2,1.8.1,3.6.3,5.4.3,3.5,0,7-.4,10.1-1.9,7.2-3.3,11.3-11.2,12.7-19,1-5.7.8-11.7-1.2-17.2-3.3-8.7-10.9-15.1-18.4-20.2-6.9-4.7-14.3-8.7-21.9-12.2-16.4-7.5-32.9-14.8-49.2-22.3-4.8-2.2-9.6-4.4-14.4-6.6,0,0,.1,0,.2,0,0,0,0,0,0,0,11.9,2.4,23.8,4.7,35.7,7.1,5.5,1.1,11,2.2,16.4,3.5.7.1,1.3.3,2,.4l18.6-106.3,41.5,27.5s0,0,0-.1c4.4-14.3,6.6-26.4,5.8-48.9-.5-16.5-10.2-32.2-21.7-44.1-37.2-38.7-96.8-41.7-136.9-7-17.2,14.9-29.3,33.7-39.7,54.3-9.3,18.4-17.5,38.3-24,57.2-13.8,39.6-23.7,80.6-39,119.7,34.2,60.7,97,103.2,170.2,108.9l10.1-66c-.5-.2-1-.4-1.5-.6ZM280.4,248.6c10.2,2.3,9.9,16,3.1,21.2-3.1,2.4-7.4,2.9-12.8,0-3.5-2-5.2-5.5-5.2-9.1,0-6.9,5.7-14.2,14.9-12Z"/>
    <path class="st1" d="M325.7,259.9s-12.1,73.1-12.1,73.2c0,0,23,10.2,31.7,15.7,6.2,4,12.3,8.3,16.9,14.1,2.6,3.2,4.8,6.7,6.6,10.3,6.4,12.9,7.9,28,5.4,42.2-1.6,8.6-4.6,17-10.2,23.8-8.3,10.2-21.5,14.3-34.3,15.7-13.5,1.4-35-3.5-35.1-3l-8,50.7c.5,0,1,0,1.4,0,59.5,0,113.3-24.2,152.1-63.2l16.1-97.8-130.5-81.7Z"/>
    <polygon class="st1" points="402.1 233.2 372 271.4 457.5 324.5 402.1 233.2"/>
    <path class="st1" d="M270.7,269.7c5.3,3,9.7,2.4,12.8,0,6.7-5.2,7-18.8-3.1-21.2-9.2-2.2-14.9,5.1-14.9,12,0,3.6,1.6,7.1,5.2,9.1Z"/>
    <path class="st1" d="M242.1,329.7s0,0,0,0c4.7,2.2,9.5,4.4,14.2,6.6,16.3,7.5,32.8,14.8,49.2,22.3,7.6,3.5,15,7.5,21.9,12.2,7.5,5.1,15.1,11.5,18.4,20.2,2,5.5,2.2,11.5,1.2,17.2-1.4,7.8-5.5,15.7-12.7,19-3.1,1.5-6.6,1.9-10.1,1.9s-3.6-.2-5.4-.3c-27-2.2-53.7-9.4-79.9-16.2,0,0,.1,0,.3.2.2.1.7.4,1.2.7,4.6,2.8,18.9,11.3,25.7,15.5,2.6,1.5,5.2,2.8,7.9,4,1.9.8,3.7,1.5,5.5,2.3.5.2,1,.4,1.5.6,11.6,4.8,24.7,8.1,37.3,8.6,2,.2,4,0,6,0h.1c10.2-.6,20.3-4.1,27.2-11.5,5.1-5.5,8-12.6,9.7-19.8,1.7-7.5,2.2-15.5.4-23.1-3-12.8-12-23.5-22.7-31.1-13.8-9.8-29-14.9-44.9-18.7-5.4-1.3-10.9-2.4-16.4-3.5-11.9-2.4-23.8-4.7-35.7-7.1Z"/>
    <path class="st1" d="M163.8,216.1c10.4-20.6,22.5-39.4,39.7-54.3,40.1-34.7,99.7-31.7,136.9,7,11.5,11.9,21.2,27.6,21.7,44.1.8,22.5-1.4,34.6-5.8,48.9,0,0,0,0,0,.1,3-9.8,16.6-31,13.5-56.1-5.7-46.7-53.6-82.8-97.2-83.9h-3.2c-45.3,0-81.2,22.8-109.7,69.7-23.4,38.4-38.1,86.3-52.3,132.7-5.3,17.4-10.5,34.4-16,49.9,2.8,6.4,6,12.7,9.4,18.8,15.3-39.1,25.2-80.1,39-119.7,6.5-18.9,14.7-38.8,24-57.2Z"/>
  </g>
</svg>