<?xml version="1.0" encoding="UTF-8"?><svg id="Layer_1" xmlns="http://www.w3.org/2000/svg" viewBox="0 0 565.4 576"><defs><style>.cls-1{fill:#824f82;}</style></defs><path class="cls-1" d="M520.22,273.97c-1.11,1.9-.96,35.45.16,39.25,2.44,8.32,26.44,18.93,17.78,33.41-6.23,10.43-136.65,28.87-149.83,40.09-11.28,9.6,59.26,15.3,53.23,33.62-5.05,15.35-53.99,8.02-58.04,11.47-3.59,3.06,9.7,19.83,9.17,25.17-3.72,37.22-96.35-39.2-108.44-41.61-16.49-3.29-35.51,9.04-48.48,8.42-26.02-1.25-178.28-160.81-213.74-181.9-4-9.12,3.26-65.61,9.54-73.12,13.42-16.07,227.97-47.06,262.75-59.97l246.33,142.74c14.97,18.22-18.34,18.83-20.43,22.42ZM217.44,337.42c-5.36-13.48-153.89-123.33-174.74-144.14l-2.59,40.27c23.98,13.62,158.01,151.4,169.38,151.98,3.16.16,9-45.49,7.96-48.12ZM502.8,278.45c-9.26-9.71-228.77,62.92-260.52,64.49-13.36.12-14.37,37.53-12.13,40.18,1.28,1.51,37.4-6.04,38.92-7.31,2.28-1.9-9.24-11.33-3.73-19.55,3.43-5.11,115.12-29.82,119.56-24.39,2.12,2.59-.06,9.97,1.45,11.87,3.67,4.6,108.09-19.92,112.45-23.74,3.54-3.11,5.45-40.04,4-41.55ZM359.15,351.5c-2.16-2.41-60.88,11.21-63.36,13.3-2.52,2.13-5.53,20.63-5.01,24.43,1.91,14.13,69.06,54.24,73.24,49.87,1.83-1.91-9.89-28.01,31.64-26.72-8.62.25-30.54-14.11-35.4-14.69-9.64-1.14-30.43,11.76-34.67-1.56-4.21-13.2,30.35-11.08,33.22-15.79.75-1.23,1.29-27.77.33-28.84Z"/></svg>