<?xml version="1.0" encoding="UTF-8"?><svg id="Layer_1" xmlns="http://www.w3.org/2000/svg" viewBox="0 0 576 576"><defs><style>.cls-1{fill:#dd7f4b;}.cls-2{fill:#824f82;}</style></defs><path class="cls-2" d="M467.31,245.47c23.49,8.94,57.56,4.91,74.93,25.82,22,26.5,12.61,74.51-23.42,82.14-13.31,2.82-31.6.55-43.75,2.73-11.93,2.14.92,14.23,3.4,20.93,6.21,16.77,8.34,30.79-11.18,37.69-39.05,13.81-40.86-25.94-67.96-40.46-14.63,1.01-29.67-2.15-43.71-2.77-11.44-.5-45.36,5.34-51.01-6.55-2.69-5.65-1.52-53.01-1.19-63.17.17-5.23,2.12-10.07,2.4-15.31,1.45-27.5.68-55.23,8.61-82.13l91.74,7.79c14.28-1.26,28.41-24.51,42.93-30.31,24.71-9.87,44.84.97,40.25,29.18-2.34,14.37-19.55,20.56-22.02,34.39ZM505.28,289.43c8.22,5.23,22.5-4.69,12.03-13.14-10.77-8.69-18.88,8.78-12.03,13.14ZM506.51,314.51c-10.15,3.02-4.76,17.71,5.72,14.76,9.13-2.58,9.02-19.14-5.72-14.76Z"/><path class="cls-2" d="M179.53,373.87c1.55-11.63,3.47-24.9,3.98-36.52.67-15.11-2-35.74-1.85-50.8.15-14.7,7.14-66.29-1.55-74.34-10.71-9.93-43.65-2.74-53.72-7.64-6.14-2.98-5.27-20.34-4.29-26.44,1.01-6.32,4.49-9.23,8.68-13.45,16.4-16.53,37.75-31.1,55.42-46.4,7.86-6.81,37.68-38.9,45.41-38.73,7.5.17,9.5,10.79,10.01,16.46,3.05,33.85-1.34,83.97-2.23,119.71-1.85,74.34-5.22,149.42-6.82,223.36-.38,17.37-.16,34.94,1.25,52.2-2.69,15.61-25.22-8.67-30.12-12.09-11.64-8.15-55.33-33.07-60.62-41.21-6.17-9.5-6.7-54.12,2.13-64.1h34.31Z"/><path class="cls-2" d="M106.48,260.99c1.24-5.16-1-3.65-2.8-5.07-10.74-8.45-26.89-12.17-21.12-31.02,4.08-13.34,25.04-6.04,33.79-5.87,12.39.24,47.93-4.82,51.65,8.12l-3.87,131.96c-1.71,7.34-55.42,2.16-64.4.48-49.87-9.32-27.39-43.86,11.2-41.07l-.12-6.49c-5.19-8.09-94.42,1.76-75.9-41.7,1.39-3.27,16.75-9.35,19.56-9.35h52.02Z"/><path class="cls-1" d="M257.53,472.94c-2.45-2.45-2.54-8.12-2.83-11.55-4.54-53.8,2.53-110.05,4.61-163.79,2.15-55.7,3.71-110.63,8.74-166.11,1.08-11.89-5-39.74,14.19-38.57,11.84.72,15.97,7.69,16.93,18.57,2.35,26.5-1.39,69.21-2.23,97.58-1.23,41.71-5.71,84.19-6.82,125.97-1.18,44.22,1.07,88.65.09,132.89-1.02,10.46-28.17,9.52-32.68,5.01Z"/><path class="cls-2" d="M338.91,173.57c-1.82,6.52-20.34,7.82-23.38,3.46l1.67-69.44c2.98-9.81,21.71-8.17,21.71-2.63v68.61Z"/><path class="cls-2" d="M334.48,382.72v65.29c0,.74-2.7,12.84-3.23,14.47-4.91,15.15-18.58-1.09-19.05-12.28-.32-7.7,4.06-18.41,4.54-26.57.79-13.56-.49-27.36.02-40.92h17.72Z"/><path class="cls-2" d="M46.23,232.8c8.38.08,15.26,1.87,13.81,11.49-1.96,13.02-29.55,12.15-36.61,3.47-1.66-3.26-2.22-10.12,1.01-12.36.9-.62,19.18-2.62,21.79-2.6Z"/><path class="cls-2" d="M32.9,327.89c7.98-1.24,19.43,1.22,23.28,8.97,7.9,15.87-40.09,19.51-33.58-3.64,1.13-3.27,7.15-4.84,10.3-5.33Z"/></svg>