<?xml version="1.0" encoding="UTF-8"?><svg id="Layer_1" xmlns="http://www.w3.org/2000/svg" viewBox="0 0 576 576"><defs><style>.cls-1{fill:#dd7f4b;}.cls-2{fill:#824f82;}</style></defs><path class="cls-2" d="M223.29,153.19c32.95,9.67,41.63-42.73,66.01-41.82,30.72,1.15,17.07,40.34,8.05,56.6-6.08,10.96-23.87,33.02-35.2,37.85-3.42,1.46-14.8.56-19.56,1.37-12.88,2.19-31.35,8.23-40.68,17.63-23.78,23.96-23.47,48.74-7.59,77.2,4.95,8.88,15.92,18.08,18.93,24.82,3.63,8.14,3.01,18.61,5.16,27.24,11.13,44.74,48.87,85.06,90.13,104.28,23.24,10.82,70.02,10.09,95.47,5.78,6.91-1.17,21.31-8.76,25.65-3.73,2.88,3.35.61,4.22-1.71,6.61-46.79,48.04-118.76,51.35-174.88,17.65-41.96-25.2-71.34-76.62-92.77-119.46-10.43-20.85-21.37-62.24-48.23-66.79-29.67-5.02-55.95-1.84-81.86-23.44-16-13.34-25.15-41.79-10.32-58.83,17.41-20.01,39.34,10.34,54.4,13.14,10.89,2.03,23.25,1.36,24.77-11.74,4.38-37.79-20.17-62.18-16.22-102.07,3.16-31.91,42.45-50.4,71.69-45.79,34.98,5.52,51.53,78.44,68.77,83.5ZM155.25,128.89c22.28,6.49,27.8-20,8.97-23.64-16.18-3.13-20.01,20.43-8.97,23.64ZM117.99,154.83c13.93,4.18,20.68-15.8,5.75-18.83-15.14-3.08-16.25,15.68-5.75,18.83Z"/><path class="cls-1" d="M497.6,323.67l-34.92,121.36c-2.75,13.71,2.3,18.67,11.26,6.42,19.84-27.12,33.05-64.44,51.48-92.7,6.63-10.16,37.16-42.85,38.17-50.78.19-1.46-.53-4.03-1.57-5.01-2.39-2.24-32.25-7.45-37.91-8.26-79.21-11.35-169.37-24.69-249.35-18.1-6.59.54-14.83,1.42-11.39,9.9,2.07,2.92,22.59,1.15,27.64,1.52,60.9,4.38,120.15,7.13,178.7,25.44,9.23,2.89,18.54,7.52,27.9,10.23Z"/><path class="cls-2" d="M486.86,162.12c-9.9-1.11-36.76,7-47.59,10.05-67.49,19-129.55,52.7-187.86,90.79-5.95,3.22-2.3,9.03,3.17,8.2,48.96-21.12,98.26-41.13,149.42-56.5,16.28-4.89,33.47-7.81,49.06-14.11.87,14.89-17.59,58.59-13.57,70.21.88,2.56,26.59,9.98,29.53,8.97,4.93-1.7,5.26-24.94,6.34-30.98,4.82-27.05,9.12-55.59,17.39-81.5-.03-2.86-3.28-4.82-5.87-5.12Z"/><path class="cls-1" d="M403.6,148.68l.24,18.39c1.04,3.18,4.85,3.12,7.72,2.49,2.36-14.28,12.35-31.46,14.09-45.17,2.93-23.07-38.6,4.98-46.84,10.01-28.91,17.66-70.05,48.72-95.85,71.01-4.99,4.31-32.56,30.34-31.63,34.75.39,1.84,3.78,2.63,5.67,2.61,5.7-.05,9.33-7.22,13.9-10.55,35.66-25.99,75.5-52.24,113.81-74.12,2.42-1.38,17.87-10.6,18.9-9.43Z"/><path class="cls-1" d="M239.76,231.51c-11.3-4.94-27.64,4.44-31.85,15.51-5.55,14.6,2.11,37.44,11.28,49.6,6.47,8.58,14.76,13.03,23.81,18.31,2.55,15.4-.19,56.56,9.83,67.92,6.48,7.35,11.64.58,12.91-6.73,3.94-22.71.3-47.87,3.24-70.98-2.23-16.07-14.4-11.81-24.07-18.04-11.78-7.58-15.04-20.43-12.93-33.84,1.24-7.9,10.26-13.02,7.79-21.76Z"/></svg>