<?xml version="1.0" encoding="UTF-8"?><svg id="Layer_1" xmlns="http://www.w3.org/2000/svg" viewBox="0 0 565.4 576"><defs><style>.cls-1{fill:#dd7f4b;}.cls-2{fill:#824f82;}</style></defs><path class="cls-2" d="M330.65,174.36c17.86-7.67,24.65-28.3,48.7-18.94,26.19,10.19-6.9,29.19-12.66,37.86-10.84,16.32,10.1,20.35,17.03,33.46,11.95,22.62-12.37,48.51-31.37,58.55-15.34,8.11-46.65,10.41-38.92,35.17.48,1.53,9.62,12.94,1.9,12.53-16.56-.86-39.11-18.47-43.03-34.67-4.91-20.32,18.79-39.01,9.41-57.92-2.29-4.62-18.12-21.89-22.53-24.34-7.25-4.03-15.16-2.75-22.38-4.66-16.56-4.38-34.37-15.02-27.35-34.73,8.77-24.61,45.04-1.51,61.67,1.29-2.99-22.2-10.3-37.33.9-59.48,7.32-14.48,32.97-19.87,46.64-12.36,20.45,11.22,15.63,49.03,11.97,68.24ZM307.38,127.69c-4.3,2.66-1.71,17.94,7.16,11.65,5.39-3.83-.03-16.05-7.16-11.65ZM289.17,132.92c-3.46-.3-6.85-.2-9.21,2.6-6.83,8.09,12.43,14.98,9.21-2.6Z"/><path class="cls-2" d="M278.28,388.77c-5.17.76-9.65,2.54-15.09,1.82-15.64-2.05-45.94-16.15-64.13-20.68-44.64-11.14-87.43-13.59-133.41-11.69-2.07,2.01,12.7,23.51,14.73,27.61,10.25,20.63,13.34,35.26,18.6,57.11,2.18,9.07,9.14,17.44,5.43,27.04l-6.96,3.29c-6.34-1.21-18.37-31.44-22.48-38.76-9.23-16.43-56.73-86.35-52.4-100.31,2.29-7.37,22.81-4.25,29.54-4.84,30.04-2.62,61.25-8.47,91.5-4.93,23.44,2.75,117.5,38.65,132.11,55.36,2.55,2.92,3.38,4.87,2.57,8.98Z"/><path class="cls-2" d="M461.83,465.95c-1.3.86-4.43.34-6.64,1.38-3.61,1.7-4.46,7.03-10.53,2.16-4.16-4.19,3.97-28.9,5.87-35.57,8.34-29.2,21.92-56.67,27.93-86.51-37.02,5.41-71.96,18.95-107.32,30.57-3.5,1.15-41.5,19.25-38.68,6.41,25.01-22.18,55.68-38.76,87.35-49.67,27.6-9.5,86.55-29.26,113.66-28.95,3.79.04,6.94.35,9.05,3.79,2.15,4.32-2.15,14.62-4.24,19.24-11.84,26.12-36.81,54.3-51.11,80.47-4.69,8.58-22.75,54.97-25.34,56.68Z"/><path class="cls-1" d="M467.18,259.51c4.7-.76,14.2-1.71,17.62,1.34,1.94,1.73,10.21,18.28,10.89,21.54,4.09,19.65-5.81,13.25-19.03,17.23-42.45,12.78-91.07,28.66-132.54,44.12-5.53,2.06-28.87,16.89-31.49,8.09-1.66-5.56,19.88-20.61,24.66-23.94,27.47-19.15,98.95-63.37,129.89-68.39Z"/><path class="cls-1" d="M286.75,346.17c2.74,3.85,4.26,9.35-1.76,9.98-21.46-15.68-40.62-21.65-66.11-27.69-32.67-7.74-66.23-13.11-99.14-19.84-2.46-3.79-16.51-32.03-16.07-33.86.34-1.4,2.12-3.32,3.44-3.95,3.87-1.85,25.77.13,31.51.91,34.62,4.67,80.8,31.12,111.44,49,9.26,5.4,31.3,17.89,36.68,25.46Z"/></svg>