<?xml version="1.0" encoding="UTF-8"?>
<svg id="Layer_1" xmlns="http://www.w3.org/2000/svg" version="1.1" viewBox="0 0 576 576">
  <!-- Generator: Adobe Illustrator 29.7.1, SVG Export Plug-In . SVG Version: 2.1.1 Build 8)  -->
  <defs>
    <style>
      .st0 {
        fill: #824f82;
      }
    </style>
  </defs>
  <path class="st0" d="M461.1,301.8c-25.9,21.4,16.2,55.1,16.2,58.5-.2,15.4-49.7,96.2-63,110.4-71.7,76.2-231.5,80.1-307.8,11.1-33.5-30.3-81.1-132-77.2-176,2.6-29.8,32.9-23.7,44.3-30.1,4.7-2.6,12.5-28.6,30-35.9,23.5-9.8,27.1,2.5,39.8,1.6,8.7-.6,20.6-17.6,38.7-16.7,45.6,2.3,5.7,64.1,12.3,88.1,21.6-34.6,14-71.5,20.5-107.3,15.9-87.1,116.1-224.5,206.3-126.3,32.8,35.7,21.7,46.5,32.8,85.4,16.6,58,30.3,15.3,68.8,30.1,43.9,16.9,23.1,141.6-25.9,152.6-29.9,6.7-37-21.6-35.9-45.5h0ZM413.6,129.1c-13,3.8-6.4,21.2,4.3,18.5,10.5-2.7,11.1-23-4.3-18.5ZM325.7,159.4c-14,5.1-7.6,28.5,7,23.8,12.1-3.9,11.6-30.6-7-23.8ZM382,181.5c-8.5,4.4-38.6,75.7,8.7,70.8,26.2-2.7,24.8-88-8.7-70.8ZM264.2,289c-1.6,1.7-6.3,7.4-5.2,9.9,149.2-71.6,71.1,105.7,26,97.9-24.5-4.3-5.3-62.3-17.7-48.3-7.3,8.2-12.9,53.3,4,59.3,48.3,17,117.9-93.9,79.8-126.5-20-17-69-10.8-86.8,7.8h0Z"/>
</svg>