<?xml version="1.0" encoding="UTF-8"?><svg id="Layer_1" xmlns="http://www.w3.org/2000/svg" viewBox="0 0 565.4 576"><defs><style>.cls-1{fill:#f07d52;}.cls-2{fill:#824f82;}</style></defs><path class="cls-2" d="M237.04,301.07c31.19-10.29,258.02-53.35,267.66-63.15,2.83-2.87-10.87-10.33-6.75-19.58,6.03-13.54,38.01,14.2,32.37,27.45-2.97,6.98-27.7,6.72-27.9,12.12-.2,5.46,44.86,16.32,29.46,31.88-17.22,17.38-250.87,57.08-289.49,74.86-15.49,9.14-10.64,41.7-5.34,56.29,30.7-10.34,258.17-53.19,267.66-63.15,2.45-2.57-7.46-8.77-7.27-15.25.69-23.18,41.52,10.41,32.07,24.75-3.95,5.99-23.99,1.9-24.77,11.63,8.13,3.9,38.17,14.31,28.41,27.29-9.03,12.01-257.87,63-290.75,75.96-15.49,9.14-10.64,41.68-5.34,56.29,30.7-10.34,258.17-53.19,267.66-63.15,2.45-2.58-7.47-8.77-7.27-15.25.73-23.16,41.48,10.38,32.07,24.75-98.79,25.55-198.05,54.68-298.14,72.27L30.26,382.07c-2.09-5.88,4.69-60.55,8-66.38,7.16-12.58,30.59-10.17,31.56-13.16,2.2-6.77-37.49-32.15-39.56-37.99-1.72-4.84,3.37-50.72,5.29-57.34,7.93-27.46,34.94-16.38,36.54-24.52.82-4.2-36.77-24.72-38.59-28.73-3.37-7.41-5.51-80.59,9.18-85.13,66.96-18.32,189.35-52.8,249.29-49.71,37.98,1.96,192.24,120.2,239.51,136.79,4.55,2.67,4.98,7.2,2.69,11.54-7.1,13.44-260.91,64.43-293.49,77.98-13.08,9.25-8.84,42.71-3.65,55.64ZM219.75,238.45c-5.44-13.53-148.47-118.69-168.74-139.18l-2.53,38.86c23.23,13.12,152.62,146.19,163.59,146.79,2.82.15,8.56-44.28,7.68-46.47ZM219.75,358.32c-5.44-13.53-148.47-118.69-168.74-139.18l-2.53,38.86c23.23,13.12,152.62,146.19,163.59,146.79,2.82.15,8.56-44.28,7.68-46.47ZM219.75,475.84c-5.44-13.53-148.47-118.69-168.74-139.18l-2.53,38.86c23.23,13.12,152.62,146.19,163.59,146.79,2.82.15,8.56-44.28,7.68-46.47Z"/><path class="cls-1" d="M219.75,238.45c.88,2.18-4.86,46.62-7.68,46.47-10.97-.59-140.36-133.66-163.59-146.79l2.53-38.86c20.27,20.49,163.3,125.65,168.74,139.18Z"/><path class="cls-1" d="M219.75,358.32c.88,2.18-4.86,46.62-7.68,46.47-10.97-.59-140.36-133.66-163.59-146.79l2.53-38.86c20.27,20.49,163.3,125.65,168.74,139.18Z"/><path class="cls-1" d="M219.75,475.84c.88,2.18-4.86,46.62-7.68,46.47-10.97-.59-140.36-133.66-163.59-146.79l2.53-38.86c20.27,20.49,163.3,125.65,168.74,139.18Z"/></svg>