<?xml version="1.0" encoding="UTF-8"?><svg id="Layer_1" xmlns="http://www.w3.org/2000/svg" viewBox="0 0 576 576"><defs><style>.cls-1{fill:#824f82;}</style></defs><path class="cls-1" d="M553.93,250.36l-4.74,20.29c-53.48,42.51-110.79,79.28-165.65,119.85-84.41,2.3-170.27-10.83-254.85-1.05-15.45,1.79-37.77,4.8-51.12,12.32-6.89,3.88-25.34,18.82-10.19,21.52,100.86,6.07,201.71,11.5,302.11,24l68.78-48.45,120.84-75.57-3.69,80.46-152.52,140.3c-12.89,1.98-27.26,1.77-40.32,1.37-92.35-2.84-192.96-10.38-285.45-17.15-14.08-1.03-37.93,1.54-50.8-2.88-16-5.49,1-24.61,16.6-26.48,21.58-2.6,59.72,1.31,83.13,2.4,70.27,3.26,143.75,13.15,214.03,4.35,10.64-1.33,48.04-10.06,43.14-24.69-2.21-6.6-44.24-12.32-52.62-13.38-89.03-11.3-189.15-7.57-274.81-22.92-60.81-10.89-39.02-58.88-10.41-92.14,11.38-13.23,26.65-23.42,37.98-35.23,12.54-13.07,40.65-51.33,54.27-57.97,15.62-7.62,72.07-5.58,93.23-6.83,91.98-5.43,185.83-11.48,278.33-7.4,5.89.26,43.55,3.37,44.75,5.28Z"/><path class="cls-1" d="M258.35,31.1c25.54-3.71,57.28,6,61.38,34.96,2.41,17.05-4.94,84.61,18.63,88.83,17.84,3.19,32.08-15.67,51.49-16.92,33.8-2.17,32.81,18.73,22.47,44.63-28.99,72.62-81.63,51.75-144.94,55.16-27.95,1.5-67.18,3.67-94,8.49-8.38,1.51-17.06,8.12-24.92,5.82-25.82-16.16-82.35-65.31-36.8-91.92,34.27-20.02,55.59,30.39,76.54,17.96,8.27-4.91,9.85-73.09,12.74-87.29,5.48-26.86,29.45-55.65,57.41-59.72ZM295.55,89.03c4.9-33.57-30.87-10.38-17.21-1.1l17.21,1.1ZM229.67,79.27c-.86,5.97-.53,17.12,8.5,14.6,8.72-2.43.47-17.91-8.5-14.6Z"/></svg>